<svg width="18" height="17" viewBox="0 0 18 17" fill="none" xmlns="http://www.w3.org/2000/svg">
<path d="M16.3652 8.08336C16.3681 9.18325 16.1111 10.2683 15.6152 11.25C15.0273 12.4265 14.1234 13.416 13.0048 14.1078C11.8862 14.7995 10.5971 15.1662 9.2819 15.1667C8.18201 15.1696 7.097 14.9126 6.11523 14.4167L1.36523 16L2.94857 11.25C2.45268 10.2683 2.1957 9.18325 2.19857 8.08336C2.19908 6.76815 2.56574 5.47907 3.2575 4.36048C3.94926 3.2419 4.93878 2.338 6.11523 1.75002C7.097 1.25413 8.18201 0.997156 9.2819 1.00002H9.69857C11.4355 1.09585 13.0761 1.82899 14.3062 3.05907C15.5363 4.28915 16.2694 5.92973 16.3652 7.66669V8.08336Z" stroke="black" stroke-width="2" stroke-linecap="round" stroke-linejoin="round"/>
</svg>
