<svg width="22" height="23" viewBox="0 0 22 23" fill="none" xmlns="http://www.w3.org/2000/svg">
<path d="M15.8413 12.3751L11.8413 21.3751C11.0457 21.3751 10.2826 21.059 9.72002 20.4964C9.15741 19.9338 8.84134 19.1708 8.84134 18.3751V14.3751H3.18134C2.89143 14.3784 2.60428 14.3186 2.33977 14.1999C2.07526 14.0812 1.83972 13.9064 1.64948 13.6876C1.45924 13.4688 1.31883 13.2113 1.238 12.9329C1.15716 12.6544 1.13783 12.3618 1.18134 12.0751L2.56134 3.07512C2.63366 2.59821 2.87591 2.16351 3.24343 1.85111C3.61096 1.53871 4.07901 1.36966 4.56134 1.37512H15.8413M15.8413 12.3751V1.37512M15.8413 12.3751H18.5113C19.0773 12.3851 19.6272 12.187 20.0568 11.8183C20.4863 11.4496 20.7655 10.9361 20.8413 10.3751V3.37512C20.7655 2.81418 20.4863 2.30062 20.0568 1.93194C19.6272 1.56325 19.0773 1.36511 18.5113 1.37512H15.8413" stroke="black" stroke-width="2" stroke-linecap="round" stroke-linejoin="round"/>
</svg>
