<svg width="22" height="23" viewBox="0 0 22 23" fill="none" xmlns="http://www.w3.org/2000/svg">
<path d="M6.15869 10.375L10.1587 1.375C10.9543 1.375 11.7174 1.69107 12.28 2.25368C12.8426 2.81629 13.1587 3.57935 13.1587 4.375V8.375H18.8187C19.1086 8.37172 19.3958 8.4315 19.6603 8.55022C19.9248 8.66893 20.1603 8.84373 20.3505 9.06251C20.5408 9.28129 20.6812 9.53882 20.762 9.81725C20.8429 10.0957 20.8622 10.3884 20.8187 10.675L19.4387 19.675C19.3664 20.1519 19.1241 20.5866 18.7566 20.899C18.3891 21.2114 17.921 21.3805 17.4387 21.375H6.15869M6.15869 10.375V21.375M6.15869 10.375H3.15869C2.62826 10.375 2.11955 10.5857 1.74448 10.9608C1.36941 11.3359 1.15869 11.8446 1.15869 12.375V19.375C1.15869 19.9054 1.36941 20.4141 1.74448 20.7892C2.11955 21.1643 2.62826 21.375 3.15869 21.375H6.15869" stroke="black" stroke-width="2" stroke-linecap="round" stroke-linejoin="round"/>
</svg>
