<svg width="22" height="22" viewBox="0 0 22 22" fill="none" xmlns="http://www.w3.org/2000/svg">
<path fill-rule="evenodd" clip-rule="evenodd" d="M2.44444 0H19.5556C20.9056 0 22 1.09442 22 2.44444V19.5556C22 20.9056 20.9056 22 19.5556 22H2.44444C1.09442 22 0 20.9056 0 19.5556V2.44444C0 1.09442 1.09442 0 2.44444 0ZM11 4.88889C11.675 4.88889 12.2222 5.4361 12.2222 6.11111V7.94445C12.2222 8.95697 13.043 9.77778 14.0556 9.77778H15.8889C16.5639 9.77778 17.1111 10.325 17.1111 11C17.1111 11.675 16.5639 12.2222 15.8889 12.2222H14.0556C13.043 12.2222 12.2222 13.043 12.2222 14.0556V15.8889C12.2222 16.5639 11.675 17.1111 11 17.1111C10.325 17.1111 9.77778 16.5639 9.77778 15.8889V14.0556C9.77778 13.043 8.95697 12.2222 7.94445 12.2222H6.11111C5.4361 12.2222 4.88889 11.675 4.88889 11C4.88889 10.325 5.4361 9.77778 6.11111 9.77778H7.94445C8.95697 9.77778 9.77778 8.95697 9.77778 7.94445V6.11111C9.77778 5.4361 10.325 4.88889 11 4.88889Z" fill="#BFBFBF"/>
</svg>
