<svg width="22" height="22" viewBox="0 0 22 22" fill="none" xmlns="http://www.w3.org/2000/svg">
<path fill-rule="evenodd" clip-rule="evenodd" d="M14.4957 2.07279C9.77674 -2.05213 2.45959 0.282029 0.834895 6.40011C0.152899 8.96746 0.810695 10.1587 0.810695 12.0859C0.810695 13.6159 0.326586 15.6774 0.106565 16.5352C0.0380603 16.8023 -0.0346305 17.1026 0.132133 17.3222C0.258481 17.4886 0.463631 17.5894 0.695196 17.5297C2.06689 17.17 4.24818 16.4605 6.85846 17.1689C15.6331 19.5481 21.264 7.98738 14.4957 2.07279ZM21.3927 22C21.3333 22 21.2742 21.9926 21.2167 21.978C14.279 20.2356 14.7443 22.1914 10.8899 21.1607C9.90782 20.8937 10.2852 19.6199 11.2797 19.4038C15.1529 18.5623 18.239 15.5615 19.2849 11.6921C19.6595 10.3065 21.408 9.72118 21.7095 11.1245C22.6434 15.454 20.2729 14.7214 21.9823 21.3015C22.0824 21.6865 21.7425 22 21.3927 22Z" fill="#BFBFBF"/>
</svg>
