<svg width="26" height="26" viewBox="0 0 26 26" fill="none" xmlns="http://www.w3.org/2000/svg">
<path fill-rule="evenodd" clip-rule="evenodd" d="M17.1313 2.44966C11.5543 -2.42524 2.90678 0.333307 0.986694 7.56376C0.180699 10.5979 0.958094 12.0058 0.958094 14.2833C0.958094 16.1368 0.356954 18.6502 0.107008 19.6151C0.0378615 19.882 -0.030772 20.1744 0.11351 20.4094C0.256432 20.6422 0.520065 20.7947 0.821595 20.7169C2.44269 20.2918 5.02057 19.4533 8.10545 20.2905C18.4755 23.1024 25.1302 9.43963 17.1313 2.44966ZM25.2823 26C25.2121 26 25.1422 25.9913 25.0743 25.974C16.8752 23.9148 17.4251 26.2262 12.8699 25.0081C11.7092 24.6926 12.1552 23.1872 13.3306 22.9318C17.908 21.9372 21.5552 18.3908 22.7913 13.8179C23.2339 12.1804 25.3003 11.4887 25.6567 13.1472C26.7603 18.2639 23.9589 17.3981 25.979 25.1745C26.0973 25.6295 25.6957 26 25.2823 26Z" fill="url(#paint0_angular_162_107)"/>
<defs>
<radialGradient id="paint0_angular_162_107" cx="0" cy="0" r="1" gradientUnits="userSpaceOnUse" gradientTransform="translate(20.0419 10.8333) rotate(114.906) scale(16.7217 16.7217)">
<stop stop-color="#202328"/>
<stop offset="0.456532" stop-color="#5A6579"/>
<stop offset="0.992528" stop-color="#202328"/>
</radialGradient>
</defs>
</svg>
