<svg width="26" height="26" viewBox="0 0 26 26" fill="none" xmlns="http://www.w3.org/2000/svg">
<path fill-rule="evenodd" clip-rule="evenodd" d="M10.1011 17.2268C10.6459 15.5997 9.71749 13.848 8.0652 13.3854L3.80889 12.1936C1.89592 11.658 0 13.0945 0 15.081C0 17.6226 0 20.7294 0 22.9731C0 24.6299 1.34314 25.9706 3 25.9706H5.01424C6.30406 25.9706 7.44951 25.1462 7.85902 23.9231L10.1011 17.2268ZM3.00005 3.93707e-05C1.34318 2.36493e-05 0 1.34318 0 3.00005V6.64639C0 7.99172 0.895608 9.17254 2.19111 9.53528L9.02993 11.4501C10.5692 11.8811 12.1761 11.0295 12.6836 9.51373L14.5456 3.95255C15.1963 2.00923 13.7502 6.15568e-05 11.7008 6.36851e-05C8.80056 6.6697e-05 5.90031 6.689e-05 3.00005 3.93707e-05ZM13.5714 26C11.522 26 10.0759 23.9908 10.7266 22.0475L17.423 2.04757C17.8325 0.82449 18.978 6.01524e-05 20.2678 6.01524e-05H23C24.6569 6.01524e-05 26 1.33941 26 2.99626C26 8.71894 26 18.2003 26 23.0074C26 24.6642 24.6569 26 23 26C19.8571 26 16.7143 26 13.5714 26ZM23.1485 16.7774C23.1485 18.4574 21.9281 20.0018 20.8663 21.0274C19.9953 21.8689 18.6564 21.8689 17.7854 21.0274C16.7236 20.0018 15.5032 18.4574 15.5032 16.7774C15.5032 15.7636 15.9059 14.7913 16.6228 14.0744C17.3397 13.3575 18.312 12.9547 19.3259 12.9547C20.3397 12.9547 21.312 13.3575 22.0289 14.0744C22.7458 14.7913 23.1485 15.7636 23.1485 16.7774ZM19.3259 18.0516C20.0296 18.0516 20.6001 17.4811 20.6001 16.7774C20.6001 16.0737 20.0296 15.5032 19.3259 15.5032C18.6221 15.5032 18.0516 16.0737 18.0516 16.7774C18.0516 17.4811 18.6221 18.0516 19.3259 18.0516Z" fill="url(#paint0_angular_74_283)"/>
<defs>
<radialGradient id="paint0_angular_74_283" cx="0" cy="0" r="1" gradientUnits="userSpaceOnUse" gradientTransform="translate(13 13) rotate(90) scale(13)">
<stop stop-color="#202328"/>
<stop offset="0.456532" stop-color="#5A6579"/>
<stop offset="0.992528" stop-color="#202328"/>
</radialGradient>
</defs>
</svg>
