<svg width="22" height="22" viewBox="0 0 22 22" fill="none" xmlns="http://www.w3.org/2000/svg">
<path fill-rule="evenodd" clip-rule="evenodd" d="M8.39301 15.0367C8.93779 13.4096 8.00941 11.6579 6.35712 11.1953L3.80889 10.4818C1.89592 9.94615 0 11.384 0 13.3705C0 15.2171 0 17.315 0 18.9771C0 20.6339 1.34315 21.9751 3 21.9751H3.91063C5.20044 21.9751 6.3459 21.1507 6.75541 19.9276L8.39301 15.0367ZM3.00005 3.74218e-05C1.34318 2.36295e-05 0 1.34318 0 3.00005V5.27381C0 6.61914 0.895612 7.79996 2.19112 8.1627L7.21798 9.57021C8.75726 10.0012 10.3641 9.14959 10.8716 7.63381L12.1042 3.95254C12.7549 2.00922 11.3088 5.28373e-05 9.25943 5.44851e-05C7.17297 5.61628e-05 5.08651 5.479e-05 3.00005 3.74218e-05ZM12.1247 22C10.0754 22 8.62929 19.9908 9.27996 18.0475L14.6371 2.04756C15.0466 0.824481 16.1921 5.08982e-05 17.4819 5.08982e-05H19C20.6569 5.08982e-05 22 1.33954 22 2.9964C22 7.68926 22 14.9538 22 19.0067C22 20.6635 20.6569 22 19 22C16.7082 22 14.4165 22 12.1247 22ZM19.5872 14.1963C19.5872 15.504 18.7133 16.7146 17.8739 17.5757C17.0286 18.4429 15.6767 18.4429 14.8313 17.5757C13.992 16.7146 13.1181 15.504 13.1181 14.1963C13.1181 13.3384 13.4588 12.5157 14.0654 11.9091C14.672 11.3025 15.4948 10.9617 16.3526 10.9617C17.2105 10.9617 18.0332 11.3025 18.6398 11.9091C19.2464 12.5157 19.5872 13.3384 19.5872 14.1963ZM16.3526 15.2745C16.9481 15.2745 17.4308 14.7917 17.4308 14.1963C17.4308 13.6008 16.9481 13.1181 16.3526 13.1181C15.7572 13.1181 15.2744 13.6008 15.2744 14.1963C15.2744 14.7917 15.7572 15.2745 16.3526 15.2745Z" fill="#BFBFBF"/>
</svg>
