<svg width="18" height="19" viewBox="0 0 18 19" fill="none" xmlns="http://www.w3.org/2000/svg">
<path d="M15 5.6C15 4.11479 14.3679 2.69041 13.2426 1.6402C12.1174 0.589998 10.5913 0 9 0C7.4087 0 5.88258 0.589998 4.75736 1.6402C3.63214 2.69041 3 4.11479 3 5.6C3 12.1333 0 14 0 14H18C18 14 15 12.1333 15 5.6Z" fill="url(#paint0_angular_67_23)"/>
<path d="M11.6476 17C11.3786 17.3042 10.9925 17.5566 10.528 17.7321C10.0634 17.9076 9.53669 18 9.00057 18C8.46446 18 7.93776 17.9076 7.4732 17.7321C7.00864 17.5566 6.62252 17.3042 6.35352 17" stroke="#353A45" stroke-width="1.5" stroke-linecap="round" stroke-linejoin="round"/>
<defs>
<radialGradient id="paint0_angular_67_23" cx="0" cy="0" r="1" gradientUnits="userSpaceOnUse" gradientTransform="translate(13.8752 5.83333) rotate(120.836) scale(9.51115 10.9593)">
<stop stop-color="#202328"/>
<stop offset="0.456532" stop-color="#5A6579"/>
<stop offset="0.992528" stop-color="#202328"/>
</radialGradient>
</defs>
</svg>
