<svg width="19" height="19" viewBox="0 0 19 19" fill="none" xmlns="http://www.w3.org/2000/svg">
<path d="M15.5 5.6C15.5 4.11479 14.8679 2.69041 13.7426 1.6402C12.6174 0.589998 11.0913 0 9.5 0C7.9087 0 6.38258 0.589998 5.25736 1.6402C4.13214 2.69041 3.5 4.11479 3.5 5.6C3.5 12.1333 0.5 14 0.5 14H18.5C18.5 14 15.5 12.1333 15.5 5.6Z" fill="#BFBFBF"/>
<path d="M12.1467 17C11.8777 17.3042 11.4915 17.5566 11.027 17.7321C10.5624 17.9076 10.0357 18 9.4996 18C8.96349 18 8.43678 17.9076 7.97222 17.7321C7.50766 17.5566 7.12155 17.3042 6.85254 17" stroke="#BFBFBF" stroke-width="1.5" stroke-linecap="round" stroke-linejoin="round"/>
</svg>
