<svg width="32" height="26" viewBox="0 0 32 26" fill="none" xmlns="http://www.w3.org/2000/svg">
<path fill-rule="evenodd" clip-rule="evenodd" d="M1.44675 6.89902C-0.482251 7.96306 -0.482251 9.68822 1.44675 10.7523L12.5072 16.8533C14.4362 17.9173 17.5637 17.9173 19.4927 16.8533L30.5532 10.7523C32.4822 9.68822 32.4822 7.96306 30.5532 6.89902L19.4927 0.798035C17.5637 -0.266012 14.4362 -0.266012 12.5072 0.798035L1.44675 6.89902ZM1.44683 15.2477C1.77713 15.0655 2.1778 15.0655 2.5081 15.2477L12.5072 20.7633C14.4362 21.8273 17.5638 21.8273 19.4928 20.7633L29.4919 15.2477C29.8222 15.0655 30.2229 15.0655 30.5532 15.2477C32.4823 16.3118 32.4823 18.0369 30.5532 19.101L19.4928 25.202C17.5638 26.266 14.4363 26.266 12.5073 25.202L1.44683 19.101C-0.482178 18.0369 -0.482178 16.3118 1.44683 15.2477Z" fill="url(#paint0_angular_84_300)"/>
<defs>
<radialGradient id="paint0_angular_84_300" cx="0" cy="0" r="1" gradientUnits="userSpaceOnUse" gradientTransform="translate(16 13) rotate(90) scale(13 16)">
<stop stop-color="#202328"/>
<stop offset="0.456532" stop-color="#5A6579"/>
<stop offset="0.992528" stop-color="#202328"/>
</radialGradient>
</defs>
</svg>
