<svg width="26" height="22" viewBox="0 0 26 22" fill="none" xmlns="http://www.w3.org/2000/svg">
<path fill-rule="evenodd" clip-rule="evenodd" d="M1.17549 5.83763C-0.391829 6.73798 -0.391829 8.19773 1.17549 9.09808L10.1621 14.2604C11.7294 15.1608 14.2705 15.1608 15.8378 14.2604L24.8245 9.09808C26.3918 8.19773 26.3918 6.73798 24.8245 5.83763L15.8378 0.67526C14.2705 -0.225087 11.7294 -0.225087 10.1621 0.67526L1.17549 5.83763ZM1.17555 12.9019C1.44252 12.7486 1.77086 12.7486 2.03783 12.9019L10.1621 17.5689C11.7294 18.4693 14.2706 18.4693 15.8379 17.5689L23.9622 12.9019C24.2292 12.7486 24.5575 12.7486 24.8245 12.9019C26.3918 13.8023 26.3918 15.262 24.8245 16.1624L15.8379 21.3247C14.2706 22.2251 11.7295 22.2251 10.1622 21.3247L1.17555 16.1624C-0.391769 15.262 -0.391769 13.8023 1.17555 12.9019Z" fill="#D9D9D9"/>
</svg>
