<svg width="18" height="18" viewBox="0 0 18 18" fill="none" xmlns="http://www.w3.org/2000/svg">
<path d="M16.4847 12.7304V14.9885C16.4856 15.1981 16.4426 15.4056 16.3586 15.5977C16.2747 15.7898 16.1515 15.9622 15.997 16.1039C15.8425 16.2456 15.6602 16.3535 15.4616 16.4207C15.263 16.4878 15.0526 16.5128 14.8438 16.4939C12.5276 16.2422 10.3028 15.4508 8.34801 14.1831C6.52935 13.0274 4.98745 11.4855 3.8318 9.66689C2.55971 7.70324 1.76807 5.46756 1.521 3.14096C1.50219 2.93282 1.52693 2.72303 1.59364 2.52497C1.66035 2.32691 1.76757 2.1449 1.90847 1.99055C2.04937 1.83619 2.22087 1.71287 2.41204 1.62843C2.60322 1.54398 2.80988 1.50027 3.01888 1.50007H5.27698C5.64227 1.49648 5.99641 1.62583 6.27338 1.86403C6.55035 2.10222 6.73126 2.43301 6.78239 2.79472C6.8777 3.51736 7.05445 4.22691 7.30928 4.90981C7.41055 5.17922 7.43247 5.47202 7.37243 5.7535C7.3124 6.03498 7.17294 6.29336 6.97056 6.49801L6.01463 7.45394C7.08614 9.33837 8.64642 10.8986 10.5308 11.9702L11.4868 11.0142C11.6914 10.8118 11.9498 10.6724 12.2313 10.6123C12.5128 10.5523 12.8056 10.5742 13.075 10.6755C13.7579 10.9303 14.4674 11.1071 15.1901 11.2024C15.5557 11.254 15.8896 11.4381 16.1283 11.7199C16.367 12.0016 16.4939 12.3612 16.4847 12.7304Z" stroke="#999999" stroke-width="1.5" stroke-linecap="round" stroke-linejoin="round"/>
</svg>
