<svg width="18" height="20" viewBox="0 0 18 20" fill="none" xmlns="http://www.w3.org/2000/svg">
<path d="M14.3333 6.6C14.3333 5.11479 13.7714 3.69041 12.7712 2.6402C11.771 1.59 10.4145 1 9 1C7.58551 1 6.22896 1.59 5.22876 2.6402C4.22857 3.69041 3.66667 5.11479 3.66667 6.6C3.66667 13.1333 1 15 1 15H17C17 15 14.3333 13.1333 14.3333 6.6Z" stroke="#999999" stroke-width="1.5" stroke-linecap="round" stroke-linejoin="round"/>
<path d="M11 18C10.7968 18.3042 10.505 18.5566 10.154 18.7321C9.80302 18.9076 9.40506 19 9 19C8.59494 19 8.19698 18.9076 7.84598 18.7321C7.49498 18.5566 7.20325 18.3042 7 18" stroke="#999999" stroke-width="1.5" stroke-linecap="round" stroke-linejoin="round"/>
</svg>
