<svg width="12" height="16" viewBox="0 0 12 16" fill="none" xmlns="http://www.w3.org/2000/svg">
<path fill-rule="evenodd" clip-rule="evenodd" d="M6.00036 0.833496C5.16051 0.833496 4.35506 1.16713 3.76119 1.76099C3.16733 2.35486 2.8337 3.16031 2.8337 4.00016C2.8337 4.84001 3.16733 5.64547 3.76119 6.23933C4.35506 6.8332 5.16051 7.16683 6.00036 7.16683C6.84021 7.16683 7.64567 6.8332 8.23953 6.23933C8.8334 5.64547 9.16703 4.84001 9.16703 4.00016C9.16703 3.16031 8.8334 2.35486 8.23953 1.76099C7.64567 1.16713 6.84021 0.833496 6.00036 0.833496ZM3.8337 4.00016C3.8337 3.42553 4.06197 2.87443 4.4683 2.4681C4.87463 2.06177 5.42573 1.8335 6.00036 1.8335C6.575 1.8335 7.1261 2.06177 7.53243 2.4681C7.93876 2.87443 8.16703 3.42553 8.16703 4.00016C8.16703 4.5748 7.93876 5.1259 7.53243 5.53223C7.1261 5.93856 6.575 6.16683 6.00036 6.16683C5.42573 6.16683 4.87463 5.93856 4.4683 5.53223C4.06197 5.1259 3.8337 4.5748 3.8337 4.00016ZM6.00036 8.16683C4.45836 8.16683 3.03703 8.5175 1.98436 9.1095C0.947029 9.69349 0.167029 10.5775 0.167029 11.6668V11.7348C0.166363 12.5095 0.165696 13.4815 1.01836 14.1762C1.4377 14.5175 2.02503 14.7608 2.81836 14.9208C3.61303 15.0822 4.6497 15.1668 6.00036 15.1668C7.35103 15.1668 8.38703 15.0822 9.18303 14.9208C9.97636 14.7608 10.563 14.5175 10.983 14.1762C11.8357 13.4815 11.8344 12.5095 11.8337 11.7348V11.6668C11.8337 10.5775 11.0537 9.69349 10.017 9.1095C8.9637 8.5175 7.54303 8.16683 6.00036 8.16683ZM1.16703 11.6668C1.16703 11.0995 1.5817 10.4835 2.47436 9.9815C3.3517 9.48816 4.59703 9.16683 6.00103 9.16683C7.4037 9.16683 8.64903 9.48816 9.52636 9.9815C10.4197 10.4835 10.8337 11.0995 10.8337 11.6668C10.8337 12.5388 10.807 13.0295 10.351 13.4002C10.1044 13.6015 9.69103 13.7982 8.98436 13.9408C8.2797 14.0835 7.31636 14.1668 6.00036 14.1668C4.68436 14.1668 3.72036 14.0835 3.01636 13.9408C2.3097 13.7982 1.89636 13.6015 1.6497 13.4008C1.1937 13.0295 1.16703 12.5388 1.16703 11.6668Z" fill="#999999"/>
</svg>
