<svg width="14" height="9" viewBox="0 0 14 9" fill="none" xmlns="http://www.w3.org/2000/svg">
<path fill-rule="evenodd" clip-rule="evenodd" d="M7.70734 8.20698C7.51981 8.39445 7.26551 8.49976 7.00034 8.49976C6.73518 8.49976 6.48087 8.39445 6.29334 8.20698L0.636343 2.54998C0.540833 2.45773 0.464651 2.34739 0.412242 2.22538C0.359833 2.10338 0.332246 1.97216 0.331092 1.83938C0.329939 1.7066 0.355241 1.57492 0.405521 1.45202C0.455802 1.32913 0.530055 1.21747 0.623948 1.12358C0.717841 1.02969 0.829492 0.955436 0.952389 0.905155C1.07529 0.854874 1.20696 0.829572 1.33974 0.830726C1.47252 0.83188 1.60374 0.859466 1.72575 0.911875C1.84775 0.964284 1.9581 1.04047 2.05034 1.13598L7.00034 6.08598L11.9503 1.13598C12.1389 0.953818 12.3915 0.853024 12.6537 0.855302C12.9159 0.857581 13.1668 0.96275 13.3522 1.14816C13.5376 1.33357 13.6427 1.58438 13.645 1.84658C13.6473 2.10877 13.5465 2.36137 13.3643 2.54998L7.70734 8.20698Z" fill="#D9D9D9"/>
</svg>
