<svg width="20" height="19" viewBox="0 0 20 19" fill="none" xmlns="http://www.w3.org/2000/svg">
<path d="M9.16675 2.8335H3.33341C2.89139 2.8335 2.46746 3.00909 2.1549 3.32165C1.84234 3.63421 1.66675 4.05814 1.66675 4.50016V16.1668C1.66675 16.6089 1.84234 17.0328 2.1549 17.3453C2.46746 17.6579 2.89139 17.8335 3.33341 17.8335H15.0001C15.4421 17.8335 15.866 17.6579 16.1786 17.3453C16.4912 17.0328 16.6667 16.6089 16.6667 16.1668V10.3335" stroke="#999999" stroke-width="2" stroke-linecap="round" stroke-linejoin="round"/>
<path d="M15.4167 1.5832C15.7483 1.25168 16.1979 1.06543 16.6667 1.06543C17.1356 1.06543 17.5852 1.25168 17.9167 1.5832C18.2483 1.91472 18.4345 2.36436 18.4345 2.8332C18.4345 3.30204 18.2483 3.75168 17.9167 4.0832L10.0001 11.9999L6.66675 12.8332L7.50008 9.49986L15.4167 1.5832Z" stroke="#999999" stroke-width="2" stroke-linecap="round" stroke-linejoin="round"/>
</svg>
