<svg width="18" height="15" viewBox="0 0 18 15" fill="none" xmlns="http://www.w3.org/2000/svg">
<path d="M7.40307 10.7983H1.92347C1.22995 10.7983 0.666992 11.3514 0.666992 12.0328C0.666992 12.7132 1.22995 13.2672 1.92347 13.2672H7.40307C8.09658 13.2672 8.65954 12.7132 8.65954 12.0328C8.65954 11.3514 8.09658 10.7983 7.40307 10.7983Z" fill="#4D4D4D"/>
<path d="M17.3334 2.81544C17.3334 2.135 16.7705 1.58191 16.0779 1.58191H10.5983C9.90476 1.58191 9.3418 2.135 9.3418 2.81544C9.3418 3.49679 9.90476 4.04988 10.5983 4.04988H16.0779C16.7705 4.04988 17.3334 3.49679 17.3334 2.81544Z" fill="#4D4D4D"/>
<path d="M6.39844 2.81547C6.39844 4.37102 5.11604 5.63184 3.53272 5.63184C1.95032 5.63184 0.666992 4.37102 0.666992 2.81547C0.666992 1.26082 1.95032 0 3.53272 0C5.11604 0 6.39844 1.26082 6.39844 2.81547Z" fill="#FFD816"/>
<path d="M17.334 11.9994C17.334 13.554 16.0516 14.8148 14.4683 14.8148C12.8859 14.8148 11.6025 13.554 11.6025 11.9994C11.6025 10.4438 12.8859 9.18298 14.4683 9.18298C16.0516 9.18298 17.334 10.4438 17.334 11.9994Z" fill="#4D4D4D"/>
</svg>
