<svg width="18" height="16" viewBox="0 0 18 16" fill="none" xmlns="http://www.w3.org/2000/svg">
<path d="M7.40307 11.2983H1.92347C1.22995 11.2983 0.666992 11.8514 0.666992 12.5328C0.666992 13.2132 1.22995 13.7672 1.92347 13.7672H7.40307C8.09658 13.7672 8.65954 13.2132 8.65954 12.5328C8.65954 11.8514 8.09658 11.2983 7.40307 11.2983Z" fill="#999999"/>
<path d="M17.3334 3.31544C17.3334 2.635 16.7705 2.08191 16.0779 2.08191H10.5983C9.90476 2.08191 9.3418 2.635 9.3418 3.31544C9.3418 3.99679 9.90476 4.54988 10.5983 4.54988H16.0779C16.7705 4.54988 17.3334 3.99679 17.3334 3.31544Z" fill="#999999"/>
<path d="M6.39844 3.31547C6.39844 4.87102 5.11604 6.13184 3.53272 6.13184C1.95032 6.13184 0.666992 4.87102 0.666992 3.31547C0.666992 1.76082 1.95032 0.5 3.53272 0.5C5.11604 0.5 6.39844 1.76082 6.39844 3.31547Z" fill="#999999"/>
<path d="M17.334 12.4994C17.334 14.054 16.0516 15.3148 14.4683 15.3148C12.8859 15.3148 11.6025 14.054 11.6025 12.4994C11.6025 10.9438 12.8859 9.68298 14.4683 9.68298C16.0516 9.68298 17.334 10.9438 17.334 12.4994Z" fill="#999999"/>
</svg>
