<svg width="14" height="17" viewBox="0 0 14 17" fill="none" xmlns="http://www.w3.org/2000/svg">
<path fill-rule="evenodd" clip-rule="evenodd" d="M6.99967 1.83333C5.58519 1.83333 4.22863 2.39524 3.22844 3.39543C2.22824 4.39562 1.66634 5.75218 1.66634 7.16667C1.66634 9.23204 3.01017 11.2362 4.48364 12.7915C5.20675 13.5548 5.93212 14.1796 6.47746 14.6139C6.68042 14.7755 6.85769 14.9101 6.99967 15.0151C7.14166 14.9101 7.31893 14.7755 7.52189 14.6139C8.06723 14.1796 8.7926 13.5548 9.5157 12.7915C10.9892 11.2362 12.333 9.23204 12.333 7.16667C12.333 5.75218 11.7711 4.39562 10.7709 3.39543C9.77071 2.39524 8.41416 1.83333 6.99967 1.83333ZM6.99967 15.8333C6.62987 16.388 6.6297 16.3879 6.62951 16.3878L6.62761 16.3865L6.62316 16.3835L6.60789 16.3732C6.5949 16.3644 6.57639 16.3517 6.55271 16.3353C6.50536 16.3025 6.43732 16.2548 6.35153 16.1928C6.18004 16.0689 5.93725 15.8881 5.64689 15.6569C5.06723 15.1954 4.2926 14.5286 3.51571 13.7085C1.98918 12.0972 0.333008 9.76796 0.333008 7.16667C0.333008 5.39856 1.03539 3.70286 2.28563 2.45262C3.53587 1.20238 5.23156 0.5 6.99967 0.5C8.76778 0.5 10.4635 1.20238 11.7137 2.45262C12.964 3.70286 13.6663 5.39856 13.6663 7.16667C13.6663 9.76796 12.0102 12.0972 10.4836 13.7085C9.70675 14.5286 8.93212 15.1954 8.35246 15.6569C8.0621 15.8881 7.81931 16.0689 7.64781 16.1928C7.56203 16.2548 7.49399 16.3025 7.44664 16.3353C7.42296 16.3517 7.40444 16.3644 7.39146 16.3732L7.37618 16.3835L7.37174 16.3865L7.37033 16.3875C7.37014 16.3876 7.36947 16.388 6.99967 15.8333ZM6.99967 15.8333L7.36947 16.388C7.14554 16.5373 6.85345 16.5371 6.62951 16.3878L6.99967 15.8333Z" fill="black"/>
<path fill-rule="evenodd" clip-rule="evenodd" d="M6.99967 5.83333C6.2633 5.83333 5.66634 6.43029 5.66634 7.16667C5.66634 7.90305 6.2633 8.5 6.99967 8.5C7.73605 8.5 8.33301 7.90305 8.33301 7.16667C8.33301 6.43029 7.73605 5.83333 6.99967 5.83333ZM4.33301 7.16667C4.33301 5.69391 5.52692 4.5 6.99967 4.5C8.47243 4.5 9.66634 5.69391 9.66634 7.16667C9.66634 8.63943 8.47243 9.83333 6.99967 9.83333C5.52692 9.83333 4.33301 8.63943 4.33301 7.16667Z" fill="black"/>
</svg>
