<svg width="45" height="50" viewBox="0 0 45 50" fill="none" xmlns="http://www.w3.org/2000/svg">
<g filter="url(#filter0_d_329_759)">
<path fill-rule="evenodd" clip-rule="evenodd" d="M22.5 30C22.5 30 35 21.8182 35 12.2727C35 9.0178 33.683 5.89618 31.3388 3.5946C28.9946 1.29302 25.8152 0 22.5 0C19.1848 0 16.0054 1.29302 13.6612 3.5946C11.317 5.89618 10 9.0178 10 12.2727C10 21.8182 22.5 30 22.5 30ZM26.6667 12.2727C26.6667 14.5321 24.8012 16.3636 22.5 16.3636C20.1988 16.3636 18.3333 14.5321 18.3333 12.2727C18.3333 10.0134 20.1988 8.18182 22.5 8.18182C24.8012 8.18182 26.6667 10.0134 26.6667 12.2727Z" fill="#EC1313"/>
</g>
<defs>
<filter id="filter0_d_329_759" x="0" y="0" width="45" height="50" filterUnits="userSpaceOnUse" color-interpolation-filters="sRGB">
<feFlood flood-opacity="0" result="BackgroundImageFix"/>
<feColorMatrix in="SourceAlpha" type="matrix" values="0 0 0 0 0 0 0 0 0 0 0 0 0 0 0 0 0 0 127 0" result="hardAlpha"/>
<feOffset dy="10"/>
<feGaussianBlur stdDeviation="5"/>
<feComposite in2="hardAlpha" operator="out"/>
<feColorMatrix type="matrix" values="0 0 0 0 0 0 0 0 0 0 0 0 0 0 0 0 0 0 0.1 0"/>
<feBlend mode="normal" in2="BackgroundImageFix" result="effect1_dropShadow_329_759"/>
<feBlend mode="normal" in="SourceGraphic" in2="effect1_dropShadow_329_759" result="shape"/>
</filter>
</defs>
</svg>
