<svg width="18" height="20" viewBox="0 0 18 20" fill="none" xmlns="http://www.w3.org/2000/svg">
<path d="M8.49102 8.65844L5.24935 11.8976L2.00768 8.65844C1.36691 8.01736 0.930602 7.20069 0.753928 6.31167C0.577253 5.42265 0.668144 4.5012 1.01511 3.66383C1.36207 2.82646 1.94953 2.11077 2.70321 1.60724C3.45689 1.10371 4.34295 0.834961 5.24935 0.834961C6.15576 0.834961 7.04181 1.10371 7.79549 1.60724C8.54917 2.11077 9.13663 2.82646 9.48359 3.66383C9.83056 4.5012 9.92145 5.42265 9.74477 6.31167C9.5681 7.20069 9.13179 8.01736 8.49102 8.65844ZM5.24935 7.08344C5.69138 7.08344 6.1153 6.90784 6.42786 6.59528C6.74042 6.28272 6.91602 5.8588 6.91602 5.41677C6.91602 4.97475 6.74042 4.55082 6.42786 4.23826C6.1153 3.9257 5.69138 3.75011 5.24935 3.75011C4.80732 3.75011 4.3834 3.9257 4.07084 4.23826C3.75828 4.55082 3.58268 4.97475 3.58268 5.41677C3.58268 5.8588 3.75828 6.28272 4.07084 6.59528C4.3834 6.90784 4.80732 7.08344 5.24935 7.08344ZM15.991 16.1584L12.7494 19.3984L9.50768 16.1576C8.86691 15.5165 8.4306 14.6999 8.25393 13.8108C8.07725 12.9218 8.16815 12.0004 8.51511 11.163C8.86207 10.3256 9.44953 9.60994 10.2032 9.10641C10.9569 8.60288 11.8429 8.33413 12.7494 8.33413C13.6558 8.33413 14.5418 8.60288 15.2955 9.10641C16.0492 9.60994 16.6366 10.3256 16.9836 11.163C17.3306 12.0004 17.4214 12.9218 17.2448 13.8108C17.0681 14.6999 16.6318 15.5174 15.991 16.1584ZM12.7494 14.5834C13.1914 14.5834 13.6153 14.4078 13.9279 14.0953C14.2404 13.7827 14.416 13.3588 14.416 12.9168C14.416 12.4747 14.2404 12.0508 13.9279 11.7383C13.6153 11.4257 13.1914 11.2501 12.7494 11.2501C12.3073 11.2501 11.8834 11.4257 11.5708 11.7383C11.2583 12.0508 11.0827 12.4747 11.0827 12.9168C11.0827 13.3588 11.2583 13.7827 11.5708 14.0953C11.8834 14.4078 12.3073 14.5834 12.7494 14.5834Z" fill="#999999"/>
</svg>
