<svg width="30" height="36" viewBox="0 0 30 36" fill="none" xmlns="http://www.w3.org/2000/svg">
<path d="M16.2904 34.4644C15.5148 35.0472 14.4852 35.0472 13.7096 34.4644C11.7956 33.0265 8.47876 30.305 5.64498 26.82C2.80385 23.3259 0.5 19.1278 0.5 14.7273C0.5 10.957 2.0254 7.33917 4.74369 4.6703C7.46229 2.00113 11.1514 0.5 15 0.5C18.8486 0.5 22.5377 2.00113 25.2563 4.6703C27.9746 7.33917 29.5 10.957 29.5 14.7273C29.5 19.1278 27.1961 23.3259 24.355 26.82C21.5212 30.305 18.2044 33.0265 16.2904 34.4644ZM15 20.1364C18.0289 20.1364 20.5 17.7232 20.5 14.7273C20.5 11.7313 18.0289 9.31818 15 9.31818C11.9711 9.31818 9.5 11.7313 9.5 14.7273C9.5 17.7232 11.9711 20.1364 15 20.1364Z" fill="#FFD816" stroke="black"/>
</svg>
