<svg width="16" height="16" viewBox="0 0 16 16" fill="none" xmlns="http://www.w3.org/2000/svg">
<path fill-rule="evenodd" clip-rule="evenodd" d="M4.66699 14.5C4.66699 13.7636 5.26395 13.1666 6.00033 13.1666C6.73671 13.1666 7.33366 13.7636 7.33366 14.5C7.33366 15.2363 6.73671 15.8333 6.00033 15.8333C5.26395 15.8333 4.66699 15.2363 4.66699 14.5Z" fill="black"/>
<path fill-rule="evenodd" clip-rule="evenodd" d="M12 14.5C12 13.7636 12.597 13.1666 13.3333 13.1666C14.0697 13.1666 14.6667 13.7636 14.6667 14.5C14.6667 15.2363 14.0697 15.8333 13.3333 15.8333C12.597 15.8333 12 15.2363 12 14.5Z" fill="black"/>
<path fill-rule="evenodd" clip-rule="evenodd" d="M0 1.16667C0 0.798477 0.298477 0.5 0.666667 0.5H3.33333C3.65108 0.5 3.92467 0.724257 3.98703 1.03583L4.54695 3.83333H15.3333C15.532 3.83333 15.7203 3.92195 15.847 4.07504C15.9736 4.22812 16.0254 4.42972 15.9882 4.62488L14.9206 10.2232C14.8291 10.6836 14.5787 11.0972 14.213 11.3915C13.8492 11.6844 13.3944 11.8406 12.9276 11.8333H6.4591C5.99225 11.8406 5.53747 11.6844 5.17365 11.3915C4.80816 11.0973 4.55776 10.6839 4.46622 10.2238C4.46618 10.2236 4.46626 10.224 4.46622 10.2238L3.35253 4.65947C3.34801 4.64106 3.34425 4.62236 3.3413 4.60338L2.78688 1.83333H0.666667C0.298477 1.83333 0 1.53486 0 1.16667ZM4.81382 5.16667L5.77389 9.96346C5.80437 10.1169 5.88786 10.2548 6.00974 10.3529C6.13162 10.451 6.28413 10.5031 6.44056 10.5001L6.45333 10.5H12.9333L12.9461 10.5001C13.1025 10.5031 13.255 10.451 13.3769 10.3529C13.4982 10.2552 13.5815 10.1182 13.6123 9.9656L14.5275 5.16667H4.81382Z" fill="black"/>
</svg>
